<svg xmlns="http://www.w3.org/2000/svg" viewBox="0 0 311.81 311.81"><defs><style>.cls-1{fill:#f39200;}.cls-2{fill:#fff;}</style></defs><g id="Слой_2" data-name="Слой 2"><g id="Слой_1-2" data-name="Слой 1"><circle class="cls-1" cx="155.91" cy="155.91" r="155.91"/><path class="cls-2" d="M267.52,117.84a4,4,0,0,0-4.47,1.71,59.4,59.4,0,0,1-31.5,24.8q.48-4,1.19-7.88a20,20,0,0,0,8.15-3c9.24-5.83,16.72-18.62,19.95-34.21a48.28,48.28,0,0,0,.83-6.44,2.8,2.8,0,0,0,0-.4c1.39-21-8.55-45.49-9-46.63a4,4,0,0,0-5.21-2.14,3.85,3.85,0,0,0-1.16.75,171.74,171.74,0,0,0-25.58,30.52l-.14.21a60.07,60.07,0,0,0-6.08,12.61Q213.66,90.37,213,93a131.62,131.62,0,0,0-29.46-29.29,4,4,0,0,0-5.55,1,4.13,4.13,0,0,0-.59,1.28,172.07,172.07,0,0,0-5.24,39.5v.2a60.62,60.62,0,0,0,1.62,13.94,67.66,67.66,0,0,0,4,11.18l.06.13a51.49,51.49,0,0,0,10.46,15.31l-12.26-.68a7.84,7.84,0,0,1-7.51-5.38,59.48,59.48,0,0,0-14.76-24.5,4,4,0,0,0-5.63,0,59.62,59.62,0,0,0-14.76,24.49,7.93,7.93,0,0,1-7.73,5.39l-33,1.86a59.62,59.62,0,0,1-53.8-27.87,4,4,0,0,0-7.36,2.12v67.68a43.85,43.85,0,0,0,43.79,43.79h35.83a35.63,35.63,0,0,1,21.07,10.35,20.08,20.08,0,0,0,13.81,5.57h9.08a20.15,20.15,0,0,0,14.65-6.45,30.73,30.73,0,0,1,21-9.47h35.83a43.85,43.85,0,0,0,43.79-43.79V121.66a4,4,0,0,0-2.89-3.82Zm-48.65,29.3a29.7,29.7,0,0,0,4.41-12.55,16.42,16.42,0,0,0,1.59.75q-1,5.5-1.54,11.15c-1.48.27-3,.48-4.46.65Zm28.52-92.67a143,143,0,0,1,4,14.12l-6.18,5.7a4,4,0,0,0,5.24,6l.16-.15,2.49-2.3a71.46,71.46,0,0,1,.74,12.49l-8.48,7a4,4,0,1,0,5,6.22l.13-.1,1.37-1.15c-3.66,13.06-10,21.1-15.2,24.35a17.12,17.12,0,0,1-2,1q.92-3.58,2-7A159.8,159.8,0,0,0,242,99l.86-5a4,4,0,0,0-7.85-1.36l-.87,5a148.64,148.64,0,0,1-5.08,20.58c-.95,3-1.77,6-2.51,9a13.5,13.5,0,0,1-3.9-4.5,30.93,30.93,0,0,1-3.35-12.92l2.37,2.75a4,4,0,0,0,6-5.17l-7.67-8.92a59.58,59.58,0,0,1,2-8.34A42.33,42.33,0,0,1,224.2,85l3.29,5.11a4,4,0,1,0,6.69-4.35l-5.53-8.58a160.52,160.52,0,0,1,18.74-22.71ZM183.76,73.91q5.73,4.62,11,9.78l-2.17,8.11A4,4,0,0,0,200.22,94l0-.13.87-3.24a60.49,60.49,0,0,1,10.21,15.92,40.32,40.32,0,0,0,4.4,20.11,27,27,0,0,1-3.8,16.4,158.09,158.09,0,0,0-8.8-28.62l-2-4.69a4,4,0,0,0-7.34,3.06l1.95,4.69a151.06,151.06,0,0,1,8.72,29,14.12,14.12,0,0,1-5-1.63,30.9,30.9,0,0,1-9.76-9.11l3.47,1.06a4.12,4.12,0,0,0,1.16.17,4,4,0,0,0,1.15-7.79l-11.25-3.42a59.85,59.85,0,0,1-2.79-8.12,43,43,0,0,1-1-5.53l5.52,2.55a3.83,3.83,0,0,0,1.66.37,4,4,0,0,0,1.68-7.59l-9.26-4.28a161.48,161.48,0,0,1,3.64-29.23Zm44.83,79.56a67.33,67.33,0,0,0,33.86-20v55.87a35.87,35.87,0,0,1-35.83,35.83H190.79A38.48,38.48,0,0,0,164,237.11a12.22,12.22,0,0,1-8.88,4h-9.08a12.16,12.16,0,0,1-8.34-3.4c-6.11-5.78-16.73-12.52-26.54-12.52H75.34a35.87,35.87,0,0,1-35.83-35.83V133.47a67.33,67.33,0,0,0,53.65,21.9l32.74-1.86a15.88,15.88,0,0,0,15.13-11A50.71,50.71,0,0,1,151,124.34a50.8,50.8,0,0,1,10,18.17,15.79,15.79,0,0,0,14.89,11l33,1.86a66.56,66.56,0,0,0,18.08-1.5Z"/><path class="cls-2" d="M148.16,145.75a27.87,27.87,0,0,0,0,39.41h0a4,4,0,0,0,5.63,0,27.86,27.86,0,0,0,0-39.41h0a4,4,0,0,0-5.63,0ZM151,176a20,20,0,0,1,0-21.07A20,20,0,0,1,151,176Z"/><path class="cls-2" d="M224.23,176.68a31.29,31.29,0,0,1-13.54.88l-3.06-.49a39.08,39.08,0,0,0-38,16.25l-5.24,7.56a4,4,0,0,0,1,5.54,4.06,4.06,0,0,0,1.9.7l26.13,2.39c1.19.11,2.39.16,3.56.16a38.83,38.83,0,0,0,29.78-13.91l13.57-16.2a4,4,0,0,0-4.17-6.37Zm-3.55,14a30.81,30.81,0,0,1-26.51,10.93l-19.3-1.78,1.35-1.95a31,31,0,0,1,30.2-12.9l3.06.48a39.28,39.28,0,0,0,16.36-.91Z"/><path class="cls-2" d="M132.3,193.32a39.1,39.1,0,0,0-38-16.23l-3,.47a31.1,31.1,0,0,1-13.53-.87l-11.94-3.51a4,4,0,0,0-4.18,6.36l13.57,16.22A38.86,38.86,0,0,0,105,209.66c1.19,0,2.39-.06,3.56-.17l26.12-2.39a4,4,0,0,0,2.91-6.23Zm-24.52,8.27a30.88,30.88,0,0,1-26.51-10.92l-5.13-6.16a39.28,39.28,0,0,0,16.36.91l3-.48a31.08,31.08,0,0,1,30.21,12.9l1.35,1.95Z"/><path class="cls-2" d="M170.88,169.43h4a4,4,0,0,0,0-8h-4a4,4,0,1,0,0,8Z"/><path class="cls-2" d="M127.09,169.43h4a4,4,0,1,0,0-8h-4a4,4,0,0,0,0,8Z"/><path class="cls-2" d="M246.52,173.41a4,4,0,0,0,2.82-1.16l4-4a4,4,0,0,0-5.63-5.63l-4,4a4,4,0,0,0,2.81,6.79Z"/><path class="cls-2" d="M246.52,193.32a4,4,0,0,0,2.82-1.17l4-4a4,4,0,0,0-5.63-5.63l-4,4a4,4,0,0,0,2.81,6.8Z"/><path class="cls-2" d="M54.27,162.64a4,4,0,0,0-5.63,5.63l4,4a4,4,0,0,0,5.63-5.63Z"/><path class="cls-2" d="M54.27,182.54a4,4,0,0,0-5.63,5.63l4,4a4,4,0,0,0,5.63-5.63Z"/></g></g></svg>